<?xml version="1.0" encoding="UTF-8" standalone="no"?>
<!-- Created with Inkscape (http://www.inkscape.org/) -->
<!DOCTYPE svg PUBLIC "-//W3C//DTD SVG 1.1//EN" "http://www.w3.org/Graphics/SVG/1.1/DTD/svg11.dtd" >
<svg xmlns:dc="http://purl.org/dc/elements/1.1/" xmlns:cc="http://creativecommons.org/ns#" xmlns:rdf="http://www.w3.org/1999/02/22-rdf-syntax-ns#" xmlns:svg="http://www.w3.org/2000/svg" xmlns="http://www.w3.org/2000/svg" version="1.1" width="330.00003" height="440.00003" id="svg2">
  <defs id="defs4" />
  <g transform="translate(-14.93991,-14.87709)" id="layer3">
    <g id="g3685">
      <path d="m 15.68991,15.62709 0,326.43934 c 0.0257,23.41963 13.69763,45.77245 36.65148,55.87089 l 127.59854,56.18979 127.59853,-56.18979 c 22.95383,-10.09844 36.62574,-32.45126 36.65148,-55.87089 l 0,-326.43934 z" id="path2839" style="fill:#ffd500;fill-opacity:1;stroke:#000000;stroke-width:1.5;stroke-linejoin:round;stroke-miterlimit:4;stroke-opacity:1;stroke-dasharray:none" />
      <path d="m 19.94319,19.87993 0,320 c 0.0252,22.98888 13.34322,43.6313 35.70312,53.544 l 124.29688,54.85619 124.29688,-54.85619 c 22.3599,-9.9127 35.67804,-30.55512 35.70312,-53.544 l 0,-320 z" id="path7710" style="fill:#005bbb;stroke:#000000;stroke-width:1.5;stroke-linejoin:round;stroke-miterlimit:4;stroke-opacity:1;stroke-dasharray:none" />
      <g transform="matrix(0.68808975,0,0,0.68808975,-4.6038559,-12.085824)" id="g4065">
        <path d="m 276.15314,72.952374 c -32.49122,-0.25 -50.43457,23.672486 -51.15625,49.718746 -0.7771,28.04675 13.17437,42.93484 32.96875,47.96875 0.66932,-2.47415 0.77257,-5.15677 0.82536,-9.06887 -29.25727,-7.32691 -17.34495,-63.937153 14.87553,-63.850773 28.39958,0.0761 45.64891,53.064513 14.26747,64.069773 0.0844,3.98261 0.47628,6.75946 1.369,9.31862 21.3266,-4.74298 35.04196,-20.70742 35.25639,-48.1875 0.1994,-25.55479 -18.92314,-49.741892 -48.40625,-49.968746 z" id="path19-4" style="fill:#ffd500;fill-rule:evenodd;stroke:#000000;stroke-width:1.45329881;stroke-opacity:1" />
        <path d="m 275.42138,77.155908 c 25.9283,0 46.0697,21.344073 46.0697,47.210482 0,25.86031 -20.8914,45.20439 -46.8197,45.20439 -25.92916,0 -46.07658,-16.59408 -46.07658,-45.70439 0,-25.866409 20.89742,-46.710482 46.82658,-46.710482 z" id="path21" style="fill:#ffd500;fill-rule:evenodd;stroke:#000000;stroke-width:1.45329881;stroke-opacity:1" />
      </g>
      <path d="m 168.73473,113.08074 c 4.98999,-3.39834 5.90879,-6.57809 6.25284,-11.9613 5.58192,4.37087 12.66763,3.70804 17.20224,0.80278 0.55385,6.10478 2.31247,8.78982 7.06966,10.90624 -0.82011,5.4475 -29.07396,5.78115 -30.52474,0.25228 z" id="path25" style="fill:#ffffff;fill-rule:evenodd;stroke:none" />
      <path d="m 255.91693,198.23988 c 0,-0.8334 -0.008,-6.61225 1.3192,-6.58285 3.17827,0.0632 1.44173,21.96691 1.67124,25.81435 0.2208,3.82189 -0.35204,4.79845 -3.21124,4.86556 -6.49649,0.15147 -2.59673,-19.07109 -4.07143,-30.16223 -0.26247,-1.92756 1.64636,-1.2795 2.08112,-0.92607 1.50703,1.23732 0.95845,19.77794 1.49895,19.8246 0.8521,0.0716 0.82722,-10.12673 0.71216,-12.83336 z" id="path93" style="fill:#ffffff;fill-rule:evenodd" />
      <path d="m 219.55164,112.59604 9.38858,-11.80143 c -11.0467,-26.379564 -1.48639,-71.273134 28.51755,-56.894188 49.32963,26.076865 27.00944,141.465548 28.4175,181.572578 1.37702,39.22318 4.53896,82.07415 13.53452,113.06914 -2.58055,-1.11973 -7.83214,-0.31447 -8.96226,-0.31447 0.78617,10.03404 4.68546,19.57461 6.21737,26.40991 -11.38645,-0.16035 -21.6268,-15.05385 -26.09002,-26.33286 l -4.02604,3.6952 -0.64948,-4.55909 4.618,-4.19734 c -9.84031,-22.04029 -16.90407,-35.63418 -21.49133,-115.79664 8.90305,-13.12915 11.53616,-28.55215 8.9257,-55.8808 -2.2306,-23.35203 -7.02625,-49.91099 -38.40009,-48.97001 z" id="path73" style="fill:#ffd500;fill-rule:evenodd;stroke:#000000;stroke-width:1;stroke-opacity:1" />
      <path d="m 267.35197,180.02894 c -1.65633,0.25784 -0.39554,-10.973 -0.87138,-20.96762 l -3.40428,0.58158 c 0.52753,22.89956 -2.55177,37.45482 4.46046,36.48446 6.13582,-0.84908 4.28297,-8.50735 4.80428,-37.90641 l -3.51429,0.68138 c -0.36794,11.376 1.08214,20.72859 -1.47479,21.12661 z" id="path65" style="fill:#ffffff;fill-rule:evenodd;stroke:#000000;stroke-width:1;stroke-opacity:1" />
      <path d="m 123.10793,156.60128 c -43.552808,45.65138 -26.443037,16.47668 -45.025499,35.11989 -5.573562,5.59178 -1.592261,11.84591 4.820598,16.86219 7.552824,5.908 10.892055,0.19911 13.858313,-5.42261 3.441768,-1.86469 4.855428,-4.2192 5.722418,-7.6897 6.1671,-3.66885 11.27787,-5.68163 18.90162,-11.79534 -0.24936,8.99589 -4.48119,85.89684 -5.81297,95.32045 2.61408,25.00249 10.32296,47.9166 23.34694,71.79289 l 6.30523,6.443 c 0.29303,10.32407 1.06937,19.89588 1.33717,22.81806 1.70815,18.63905 -19.14992,13.43229 -19.59287,36.4519 28.44539,-2.93521 19.41514,-7.59955 35.20766,-17.02529 12.11663,-7.23179 0.8345,-11.2026 4.78331,-30.0031 8.68332,4.4428 22.12478,5.16352 27.98232,4.51754 0.19748,6.13379 -7.23287,14.94522 3.71084,20.7032 6.75817,3.55579 8.80214,20.07538 31.81023,16.33675 0.63568,-18.53684 -18.27372,-12.20558 -19.00691,-40.66429 8.27611,-1.75847 40.5904,-19.54126 59.36337,-36.951 -11.25354,-23.56043 -16.15415,-35.90573 -21.58725,-115.86823 10.80217,-17.94519 11.04587,-33.98518 9.53437,-55.82443 -10.4157,-83.652541 -64.58254,-25.92046 -65.35844,-62.536325 21.59325,-7.572607 9.83873,-43.86103 -9.70273,-43.913422 -22.17058,-0.05944 -30.12137,38.765134 -10.13719,43.757556 -0.44461,32.947981 -34.81782,-16.648697 -50.46053,57.570311 z" id="path101" style="fill:#000000;fill-rule:evenodd" />
      <path d="m 245.2895,122.17211 c 2.22099,2.93783 3.73043,4.82342 5.67041,8.3233 7.62192,0.63515 2.28248,-20.98052 -3.0145,-46.346935 l -1.66055,4.259874 c 3.56533,20.253751 5.4593,28.855481 2.96689,29.423471 -1.40743,0.32074 -2.63777,-14.11474 -4.63027,-26.067932 l -2.37045,7.300556 c 3.26003,19.890236 3.03847,23.107666 3.03847,23.107666 z" id="path57" style="fill:#ffffff;fill-rule:evenodd;stroke:#000000;stroke-width:1;stroke-linejoin:round;stroke-opacity:1" />
      <path d="m 249.61717,80.697547 c 6.65427,23.937003 10.23121,38.537193 15.04841,35.524363 8.62421,-5.39385 -0.0829,-29.446536 -11.11516,-44.909495 l -1.527,3.329439 c 3.57483,7.681752 11.85179,28.053886 9.40721,29.310816 -1.19553,0.6147 -5.72092,-15.694159 -10.31124,-26.997217 z" id="path71" style="fill:#ffffff;fill-rule:evenodd;stroke:#000000;stroke-width:1;stroke-linejoin:round;stroke-opacity:1" />
      <path d="m 269.92615,245.41553 c -5.75591,0.74898 -6.46467,-13.27073 -7.1841,-43.67519 l 2.96609,-0.59033 c 0.53656,7.70692 -0.38528,23.765 1.77721,23.55192 2.53656,-0.24995 1.53624,-10.01462 1.22045,-24.08118 l 3.24831,-0.71774 c 0.42568,29.49615 3.66568,44.77165 -2.02796,45.51252 z" id="path83" style="fill:#ffffff;fill-rule:evenodd;stroke:#000000;stroke-width:1;stroke-opacity:1" />
      <path d="m 257.58136,253.681 c -1.45493,-0.006 -1.34978,-16.06148 -2.12894,-22.48303 l -3.0316,0.4077 c 3.07024,38.31041 2.70822,44.4286 7.04497,44.17969 5.60048,-0.32143 3.77031,-6.04976 1.10081,-45.13681 l -2.9938,0.18393 c 0.38231,7.73988 2.11253,22.85608 0.009,22.84852 z" id="path85" style="fill:#ffffff;fill-rule:evenodd;stroke:#000000;stroke-width:1;stroke-opacity:1" />
      <path d="m 260.88993,302.18585 5.35404,17.22043 c 2.97324,-1.55533 2.79026,-5.23198 -4.15184,-39.20326 l -3.35209,0.66088 c 2.25189,11.43295 4.82899,20.64752 2.14989,21.32195 z" id="path89" style="fill:#ffffff;fill-rule:evenodd;stroke:#000000;stroke-width:1;stroke-opacity:1" />
      <path d="m 254.52388,206.43798 c 0.88238,-2.09265 2.00595,-6.42518 3.09133,-9.53286 1.58045,20.39593 1.98008,28.92465 -2.41825,29.65468 -4.73711,0.78625 -3.98743,-4.85671 -4.69151,-11.16756 l 2.12083,-4.67334 c 0.74814,1.88611 0.33235,6.03112 1.4916,5.49124 1.45685,-0.67849 0.70144,-7.81009 0.406,-9.77216 z" id="path97" style="fill:#ffffff;fill-rule:evenodd;stroke:#000000;stroke-width:1;stroke-opacity:1" />
      <path d="m 146.11876,158.16065 c 0,0 0.0215,1.46366 1.97112,1.69302 -0.45873,13.64712 2.14691,23.77819 -0.21288,31.10544 -4.04323,12.5543 -7.87355,25.11634 -13.55439,95.85221 -0.50938,6.34271 6.17216,8.07176 8.35924,9.24353 2.0997,17.93348 4.44695,12.85919 4.33605,17.39022 -0.0612,2.49992 -2.26466,-2.19508 -1.66016,41.56499 l -5.48633,-5.57568 c -12.46322,-21.82624 -20.3704,-47.29737 -22.821,-70.13238 3.3753,-42.07086 4.60246,-71.39324 5.74932,-96.72723 6.71419,-4.18302 12.75573,-8.68123 17.96256,-13.17068 2.62255,-4.93833 4.23458,-7.59678 5.35647,-11.24344 z" id="path99" style="fill:#f2016c;fill-opacity:1;fill-rule:evenodd" />
      <path d="m 169.76727,326.70478 c 2.19725,14.49986 -15.77229,23.09331 -22.99138,17.31337 -0.75284,-12.80912 0.5046,-24.69003 0.5046,-24.69003 12.80692,-3.3886 -1.13162,2.05725 -2.84411,-22.8917 8.40748,2.54388 14.61469,2.59313 24.53226,2.63194 2.86027,12.41511 -8.23613,18.57198 0.79863,27.63642 z" id="path105" style="fill:#ffffff;fill-rule:evenodd;stroke:none" />
      <path d="m 146.73854,346.40894 c 0,0 0.31259,16.95595 0.31259,17.89033 7.53932,5.34022 16.23202,-0.13036 18.59904,-3.73862 0.16187,-9.40805 4.02316,-16.34845 3.12968,-22.06475 -2.72555,4.47978 -13.12041,12.85256 -22.04131,7.91304 z" id="path107" style="fill:#ffffff;fill-rule:evenodd;stroke:none" />
      <path d="m 165.72129,362.69373 c -4.79623,5.78643 -12.15078,6.89971 -18.60136,4.02485 0.39598,5.82621 0.97808,12.04972 1.03214,17.39736 4.38272,2.2504 14.00657,-1.80228 16.30773,-5.1833 0.0282,-5.82264 1.38663,-10.38396 1.26149,-16.23891 z" id="path109" style="fill:#ffffff;fill-rule:evenodd;stroke:none" />
      <path d="m 164.66337,381.30147 c -3.27244,2.43412 -6.42984,6.0455 -16.79781,5.10901 -2.84673,12.3018 -17.69091,12.10091 -19.25552,27.98172 23.83497,-1.12843 19.89925,-10.21875 31.92164,-16.03249 8.98568,-4.34526 4.93454,-9.09815 4.13169,-17.05824 z" id="path111" style="fill:#ffffff;fill-rule:evenodd;stroke:none" />
      <path d="m 210.03714,296.86647 c -5.66468,1.66747 -12.13964,2.2251 -24.42719,2.20189 -1.53578,16.2487 5.24188,13.5996 3.806,19.58045 -4.23735,17.64982 14.80606,20.86253 21.39529,11.93406 1.30759,-6.79533 0.8224,-14.02954 -0.7741,-33.7164 z m -4.06403,17.50329 c 0.60769,1.81555 -4.3049,11.44337 -7.80552,0.75259 1.87363,0.88828 6.19209,0.19899 7.80552,-0.75259 z" id="path115" style="fill:#ffffff;fill-rule:evenodd" />
      <path d="m 189.75675,331.80045 c -0.28924,6.07163 -0.50328,9.21217 0.27501,15.57374 1.68939,13.80884 15.73725,11.8401 21.02923,6.15011 l -0.29275,-20.73898 c -2.1997,4.47623 -15.55575,7.33048 -21.01149,-0.98487 z" id="path117" style="fill:#ffffff;fill-rule:evenodd" />
      <path d="m 196.18073,372.0127 c -1.40626,-5.33119 -2.16599,-7.72491 -2.93841,-14.94394 5.93945,3.8116 11.112,3.70708 17.81373,-1.30106 0.27211,5.87739 -1.06858,16.43261 -1.06858,16.43261 -4.03279,3.38431 -8.85666,2.84915 -13.80674,-0.18761 z" id="path119" style="fill:#ffffff;fill-rule:evenodd" />
      <path d="m 210.17139,374.16906 c 2.49563,25.40167 19.88788,21.77677 18.83122,35.06496 -20.07654,2.8964 -22.52695,-12.2742 -29.35357,-15.94364 -10.29729,-5.53499 -3.03858,-11.05626 -3.33069,-19.01381 5.56472,3.33664 9.63026,2.61215 13.85304,-0.10751 z" id="path121" style="fill:#ffffff;fill-rule:evenodd" />
      <path d="m 166.98136,120.81584 c -1.27165,1.20898 -2.85799,1.67534 -5.94194,1.87792 0.0713,6.14977 -0.81397,14.12908 -2.36462,19.0172 0.6191,3.05323 -0.28744,5.00868 -2.33446,15.47329 -0.49717,2.54156 -1.68251,3.17666 -6.81926,2.79847 0.34062,8.05804 0.55194,18.03733 0.65225,25.04767 24.8389,0.0334 14.71782,4.84221 44.76884,4.98865 -0.71064,-4.28234 -1.32434,-9.91269 -1.55492,-16.20031 -3.03757,0.88719 -6.02763,2.67504 -10.07093,2.67504 -12.22472,0 -23.22302,-8.58126 -23.22302,-20.93656 0,-12.35091 9.62212,-21.9687 21.84684,-21.9687 4.38355,0 7.99365,1.417 7.99365,1.417 -6.43895,-4.26469 -12.9711,-9.40548 -22.95243,-14.18967 z" id="path127" style="fill:#ffffff;fill-rule:evenodd" />
      <path d="m 195.28622,191.84678 1.30737,5.57421 c -25.63613,4.28151 -20.27214,-5.90854 -47.28659,-5.69394 l 0.88874,-4.53767 c 21.04939,0.0191 18.51082,4.66839 45.09048,4.6574 z" id="path129" style="fill:#ffffff;fill-rule:evenodd" />
      <path d="m 148.74239,193.41032 -1.6629,7.11641 c 7.2724,-1.02526 15.72597,7.37913 23.51562,13.86795 7.3423,6.11616 26.48957,3.18285 30.40225,-4.25148 -1.94568,-3.28148 -3.40851,-8.62157 -3.99092,-10.86395 -31.09153,4.19204 -16.26597,-5.43821 -48.26405,-5.86893 z" id="path131" style="fill:#ffffff;fill-rule:evenodd" />
      <path d="m 185.59883,219.07623 c -6.16898,0.88333 -10.41503,-0.79725 -14.80861,-2.28114 -2.75236,20.29865 -3.35744,31.50902 -4.50862,59.44675 -0.14312,3.47325 20.40574,2.75298 20.40299,-0.007 -0.18105,-19.49317 -0.15085,-38.1915 -1.08576,-57.15866 z" id="path133" style="fill:#ffffff;fill-rule:evenodd" />
      <path d="m 156.03341,205.2665 c 0,0 -9.01117,-6.5319 -9.94561,-1.36571 -3.90785,20.07997 -6.07381,36.81663 -8.60112,65.8424 -0.51189,2.49956 11.57605,6.49433 11.76323,3.91071 2.69104,-37.14333 6.7835,-68.3874 6.7835,-68.3874 z" id="path135" style="fill:#ffffff;fill-rule:evenodd" />
      <path d="m 164.76584,282.71445 c -3.03915,1.57461 -9.53635,1.45717 -13.98473,-1.20698 -0.31098,4.20241 -0.31156,7.07202 -0.508,12.89601 -1.17785,3.01673 14.38574,3.58871 14.72148,1.78289 -0.15095,-4.20661 -0.31099,-8.69579 -0.22875,-13.47192 z" id="path137" style="fill:#ffffff;fill-rule:evenodd" />
      <path d="m 187.39723,219.11233 c 3.7513,-0.39129 8.85316,-2.42477 11.43662,-4.53928 0,0 6.46332,42.67065 7.35648,61.32503 0.37691,2.76097 -16.91252,3.85392 -17.37216,0.3011 -0.65508,-18.5397 -1.42094,-57.08685 -1.42094,-57.08685 z" id="path139" style="fill:#ffffff;fill-rule:evenodd" />
      <path d="m 200.10392,213.39347 1.46848,-1.83013 c 3.03189,6.90464 7.89582,12.52009 11.9727,15.81754 0,0 3.42595,27.01241 5.29373,44.90114 0.44222,2.21389 -10.46113,5.73609 -10.96057,3.49664 -1.53244,-18.3481 -7.77434,-62.38519 -7.77434,-62.38519 z" id="path141" style="fill:#ffffff;fill-rule:evenodd" />
      <path d="m 148.73746,281.02181 c -7.03897,-0.639 -9.82499,-4.24324 -11.60455,-8.24724 -0.6924,6.43412 -1.05658,11.21535 -1.08931,16.02446 -0.0173,2.55201 12.3749,8.63034 12.41535,5.53347 0.0727,-5.56608 0.0449,-8.13934 0.27851,-13.31069 z" id="path143" style="fill:#ffffff;fill-rule:evenodd" />
      <path d="m 186.74555,282.89304 c -1.83227,4.13837 -18.15914,4.46403 -20.18196,-0.55971 -0.13162,4.61494 0.029,8.92689 0.41791,13.19925 0.2659,2.92119 20.22354,2.47349 20.15655,0.30649 -0.14698,-4.75485 -0.16706,-7.54958 -0.3925,-12.94603 z" id="path145" style="fill:#ffffff;fill-rule:evenodd" />
      <path d="m 188.97025,283.25585 c 1.98241,2.95619 18.27692,1.97307 18.41577,-0.91276 0.96668,4.92435 0.91757,6.46424 1.58141,11.72496 1.04864,1.54026 -14.04971,4.29248 -19.50578,2.20202 -0.43874,-4.64634 -0.27066,-8.13098 -0.4914,-13.01422 z" id="path147" style="fill:#ffffff;fill-rule:evenodd" />
      <path d="m 209.01628,281.56672 c 2.51312,1.50818 10.34817,-3.03204 10.42892,-5.96591 0.67168,3.40073 1.49948,8.60388 1.71268,12.15206 -2.2037,2.3592 -5.83319,5.93739 -10.40434,6.11012 -0.64747,-4.64634 -1.08984,-7.64239 -1.73726,-12.29627 z" id="path149" style="fill:#ffffff;fill-rule:evenodd" />
      <path d="m 169.2672,215.69123 c -2.06427,-1.49086 -6.10535,-6.93095 -11.82592,-9.55579 -2.64994,20.32992 -4.62923,43.09984 -6.14728,67.99596 -0.16393,2.68845 13.04841,4.94942 13.21373,1.29287 1.12384,-24.85814 2.35116,-42.98952 4.75947,-59.73304 z" id="path151" style="fill:#ffffff;fill-rule:evenodd" />
      <g transform="matrix(0.60937788,0,0,0.62637748,16.082678,-8.818002)" id="g3775">
        <path d="m 270.853,248.52 c 3.174,0 6.15,-3.088 5.413,-8.601 -0.698,-5.196 -3.629,-9.641 -5.413,-10.056 -2.075,0.52 -4.814,5.051 -5.407,10.056 -0.653,5.519 2.239,8.601 5.407,8.601 z" id="path157" style="fill:#ffffff;fill-rule:evenodd" />
        <path d="m 257.352,261.796 c 0,-3.122 -3.142,-6.045 -8.753,-5.321 -5.281,0.685 -9.813,3.57 -10.228,5.321 0.527,2.042 5.137,4.735 10.228,5.321 5.618,0.64 8.753,-2.199 8.753,-5.321 z" id="path159" style="fill:#ffffff;fill-rule:evenodd" />
        <path d="m 270.853,275.073 c -3.168,0 -6.145,3.089 -5.407,8.601 0.698,5.196 3.622,9.648 5.407,10.057 2.074,-0.521 4.813,-5.045 5.413,-10.057 0.652,-5.518 -2.24,-8.601 -5.413,-8.601 z" id="path161" style="fill:#ffffff;fill-rule:evenodd" />
        <path d="m 284.359,261.796 c -0.16022,3.11811 2.57042,6.046 7.24044,5.321 l 0.94098,-10.635 c 0,0 -7.80503,-2.011 -8.18142,5.314 z" id="path163" style="fill:#ffffff;fill-rule:evenodd" />
        <path d="m 261.303,252.405 c 2.246,-2.206 2.127,-6.454 -2.364,-9.839 -4.222,-3.188 -9.496,-4.3 -11.051,-3.352 -1.093,1.811 0.224,6.922 3.405,10.873 3.51,4.36 7.765,4.531 10.01,2.318 z" id="path165" style="fill:#ffffff;fill-rule:evenodd" />
        <path d="m 261.303,271.181 c -2.245,-2.206 -6.565,-2.087 -10.01,2.325 -3.247,4.156 -4.373,9.339 -3.405,10.873 1.838,1.074 7.033,-0.224 11.051,-3.352 4.438,-3.451 4.61,-7.639 2.364,-9.846 z" id="path167" style="fill:#ffffff;fill-rule:evenodd" />
        <path d="m 280.97258,271.73026 c -1.89055,2.49655 -2.121,6.454 2.371,9.846 2.46141,1.86168 5.28635,3.01576 7.52052,3.46362 l 0.11948,-10.98462 c 0,0 -5.03272,-8.89901 -10.011,-2.325 z" id="path169" style="fill:#ffffff;fill-rule:evenodd" />
        <path d="m 280.408,252.405 c 2.239,2.2 6.56,2.081 10.011,-2.325 3.24,-4.156 4.372,-9.345 3.411,-10.873 -1.844,-1.074 -7.047,0.224 -11.064,3.352 -4.426,3.445 -4.604,7.64 -2.358,9.846 z" id="path171" style="fill:#ffffff;fill-rule:evenodd" />
        <path d="m 258.57,232.648 c 2.285,-0.935 4.616,-1.35 5.209,1.535 0.566,2.713 -0.639,5.729 -1.838,6.454 -1.6,0.355 -4.498,-1.034 -5.946,-3.287 -1.594,-2.476 0.296,-3.78 2.575,-4.702 z" id="path173" style="fill:#ffffff;fill-rule:evenodd" />
        <path d="m 241.203,273.868 c -0.948,-2.239 -1.37,-4.538 1.567,-5.117 2.76,-0.553 5.828,0.632 6.56,1.811 0.362,1.567 -1.047,4.419 -3.339,5.842 -2.522,1.567 -3.84,-0.283 -4.788,-2.536 z" id="path175" style="fill:#ffffff;fill-rule:evenodd" />
        <path d="m 283.32319,291.50126 c -2.285,0.929 -4.617,1.343 -5.209,-1.541 -0.566,-2.72 0.639,-5.736 1.837,-6.454 1.601,-0.355 4.505,1.034 5.94,3.28 1.594,2.482 -0.29,3.78 -2.568,4.715 z" id="path177" style="fill:#ffffff;fill-rule:evenodd" />
        <path d="m 241.203,249.718 c 0.948,-2.246 2.292,-4.162 4.788,-2.536 2.351,1.535 3.675,4.498 3.339,5.848 -0.876,1.363 -3.925,2.391 -6.56,1.811 -2.916,-0.644 -2.515,-2.87 -1.567,-5.123 z" id="path181" style="fill:#ffffff;fill-rule:evenodd" />
        <path d="m 258.95239,290.952 c -2.285,-0.935 -4.234,-2.259 -2.581,-4.715 1.554,-2.305 4.577,-3.603 5.946,-3.28 1.384,0.856 2.431,3.853 1.838,6.454 -0.652,2.864 -2.924,2.469 -5.203,1.541 z" id="path183" style="fill:#ffffff;fill-rule:evenodd" />
        <path d="m 283.135,232.648 c 2.292,0.929 4.228,2.252 2.581,4.709 -1.554,2.305 -4.576,3.603 -5.946,3.28 -1.383,-0.856 -2.437,-3.853 -1.844,-6.454 0.658,-2.859 2.924,-2.47 5.209,-1.535 z" id="path187" style="fill:#ffffff;fill-rule:evenodd" />
      </g>
      <g transform="matrix(0.68808975,0,0,0.68808975,-7.1268517,-15.29691)" id="g3124">
        <path d="m 131.3349,303.77035 c -7.51952,5.48834 -9.15227,1.52227 -3.03011,-4.05299 6.04739,-5.50717 9.83564,-7.6372 19.16241,-6.50756 13.93627,-12.95226 30.27251,-27.33945 43.06799,-41.30515 1.44397,-1.57603 1.64841,-5.06781 2.07301,-6.26468 0.95264,1.46801 12.13684,4.64899 13.56564,1.92619 0.23862,3.1721 12.10309,4.93136 13.78083,4.00351 -1.8635,5.95334 -3.43038,8.82924 -6.63622,14.45217 -16.51379,13.29034 -48.19219,36.10094 -54.92636,37.45744 -3.1184,8.00922 -5.81552,10.36345 -8.51709,10.06672 -5.16945,-0.5678 -10.35522,-10.84201 -18.5401,-9.77565 z" id="path197" style="fill:#ffffff;fill-rule:evenodd" />
      </g>
      <path d="m 194.39391,172.87677 c 0.42754,27.64658 10.77142,56.84589 33.26855,58.18548 12.567,0.7483 32.48698,-18.19914 30.76884,-57.49887 -1.61781,-37.0049 -10.29136,-58.64392 -31.82021,-59.91527 -23.65556,-1.39694 -34.36789,33.34299 -32.21718,59.22866 z m 32.04553,-51.92509 c 13.03521,0 23.60231,22.90182 23.60231,51.15266 0,28.25082 -10.5671,51.15265 -23.60231,51.15265 -13.03519,0 -23.60232,-22.90183 -23.60232,-51.15265 0,-28.25084 10.56713,-51.15266 23.60232,-51.15266 z" id="path213" style="fill:#ffd500;fill-rule:evenodd;stroke:none" />
      <g transform="matrix(0.68808975,0,0,0.68808975,-6.8974884,-13.23264)" id="g3109">
        <path d="m 276.76074,115.745 c 16.52528,0 18.95385,12.7514 17.17936,27.3303 -1.66667,13.69301 -6.47643,24.14359 -17.0127,23.84331 -9.56175,-0.27251 -15.55354,-10.16274 -17.68027,-23.84331 -2.32564,-14.96007 1.82165,-27.3303 17.51361,-27.3303 z" id="path29" style="fill:#ffffff;fill-rule:evenodd;stroke:#000000;stroke-width:0.11408395;stroke-miterlimit:2.61310005" />
        <path d="m 280.24315,134.48628 c 2.14286,-1.97665 3.95762,-2.86729 4.88684,-3.53419 2.92927,-1.84703 5.40622,-0.39675 6.39419,0.33701 0.21423,0.8926 -2.59535,0.3522 -3.28594,0.45066 -2.88167,0.40311 -4.70383,1.93444 -7.99509,2.74652 z" id="path31" style="fill-rule:evenodd" />
        <path d="m 268.67594,132.37951 c 1.84097,0.92748 3.61794,2.23046 5.99428,1.4882 -3.32431,-2.63133 -10.39013,-4.47757 -13.39965,-2.18782 3.89844,0.50284 4.14497,-0.26885 7.40537,0.69962 z" id="path33" style="fill-rule:evenodd" />
        <path d="m 282.44208,155.66028 c -1.33555,2.3323 -7.1706,3.19931 -9.70347,0.16012 1.11139,-1.86818 3.35255,-2.45975 5.08605,-1.95013 2.16107,-0.4211 3.59442,0.17844 4.61742,1.79001 z" id="path37" />
        <path d="m 275.1294,136.18706 c -0.005,0 -0.005,0 -0.005,0 0.005,0 0.005,0 0.005,0 z m -0.005,0 c 0,-0.009 -0.006,-0.009 -0.006,-0.009 0.006,0 0.006,0 0.006,0.009 z m -0.006,-0.009 c -0.19705,-0.26475 -0.22056,-0.7125 -0.0542,-1.02162 0.17265,-0.31052 0.48179,-0.35626 0.68517,-0.0915 0.0235,0.0278 0.0533,0.0555 0.0832,0.1276 1.19677,1.82562 -0.0181,7.30392 -0.47094,9.34858 l -0.0533,0.22872 c -0.11932,0.55726 -0.1844,1.08679 -0.14915,1.55255 0.0353,0.39231 0.1609,0.75688 0.42303,1.04936 0.21423,0.24674 0.25581,0.7028 0.0949,1.02303 -0.16089,0.32852 -0.46461,0.3923 -0.67883,0.14551 -0.49444,-0.54894 -0.73307,-1.26006 -0.79816,-2.02664 v -0.009 c -0.0587,-0.7028 0.0235,-1.45136 0.17898,-2.18188 v -0.009 l 0.0587,-0.23704 v -0.009 c 0.39863,-1.81731 1.49417,-6.73697 0.69059,-7.8792 h -0.005 l -0.005,-0.012 z" id="path43" />
        <path d="m 278.47485,137.58227 c -0.12474,2.23151 0.63725,5.59221 1.1796,6.87229 l 0.005,0.008 c 0,0 0.0127,0.0256 0.0127,0.0331 0.0416,0.10879 0.0777,0.22762 0.10666,0.35295 0.0235,0.14322 0.0479,0.27878 0.0597,0.41306 0,0.008 0,0.008 0,0.008 0.0416,0.71613 -0.13198,1.51667 -0.55953,1.94505 -0.21422,0.21868 -0.26213,0.64069 -0.10756,0.94376 0.15547,0.30309 0.46461,0.37087 0.67884,0.15218 0.73307,-0.73275 1.03045,-2.02946 0.94639,-3.16632 v -0.01 c -0.0181,-0.22763 -0.0479,-0.44631 -0.0895,-0.65731 -0.0416,-0.21101 -0.10666,-0.42969 -0.17807,-0.62278 -0.0127,-0.0256 -0.0235,-0.0511 -0.0353,-0.0844 -0.006,-0.008 -0.006,-0.008 -0.006,-0.0167 -0.48178,-1.14582 -1.14887,-4.10113 -1.0413,-6.07177 0.0181,-0.34527 0.0587,-0.64068 0.13107,-0.87598 0.0479,-0.17648 0.12564,-0.30307 0.20789,-0.38748 0.22056,-0.17648 0.31005,-0.57291 0.19706,-0.89261 -0.12565,-0.3376 -0.41761,-0.47188 -0.65534,-0.30307 -0.006,0 -0.0895,0.0677 -0.0841,0.0767 -0.24948,0.23529 -0.44021,0.5729 -0.56495,0.99363 h 0.005 l -0.2088,1.28775 z m 1.33959,-1.19569 c 0.0118,-0.008 0.0118,-0.0167 0.005,-0.008 l -0.005,0.008 z m -1.33959,1.19569 c 0.0235,-0.47188 0.0904,-0.90924 0.20789,-1.28904 l -0.20789,1.28904 z" id="path45" />
        <path d="m 286.47822,138.80787 h -0.0129 c 9.1e-4,0 9.1e-4,0 0.0129,0 z m -0.0119,0 c -0.52968,0 -1.02368,-0.0749 -1.48201,-0.19908 -0.26439,-0.0749 -0.52969,-0.16876 -0.75839,-0.27494 -0.22962,-0.0995 -0.45833,-0.22469 -0.66325,-0.36216 -0.73552,-0.47403 -1.23593,-1.07415 -1.42256,-1.64867 0.0723,-0.16876 0.17474,-0.32423 0.2836,-0.47403 0.11435,-0.15643 0.2589,-0.31191 0.41624,-0.44275 0.84348,-0.70535 2.15625,-1.03053 3.63918,-0.95564 h 0.0238 c 0.13265,0 0.26529,0 0.40893,0.007 0.28908,0.006 0.56627,0.0313 0.84438,0.0683 0.27719,0.0379 0.54157,0.0995 0.79498,0.16212 1.08498,0.2939 1.95224,0.84946 2.3017,1.61075 -0.0485,0.10618 -0.10886,0.20668 -0.19302,0.31855 -0.10796,0.16875 -0.2525,0.33087 -0.39795,0.48066 -0.84347,0.84282 -2.26603,1.59843 -3.78373,1.7103 h -0.0119 z m -1.71072,0.6627 c 0.5306,0.14979 1.12066,0.23701 1.74732,0.23701 h 0.0238 c 1.73451,-0.13747 3.37388,-1.01158 4.34999,-1.9729 0.20493,-0.20004 0.37326,-0.40577 0.50591,-0.59918 v -0.007 c 0.14453,-0.20573 0.2534,-0.42473 0.33757,-0.63615 v -0.007 l 0.0119,-0.0502 v -0.2939 c -0.40893,-1.14241 -1.52959,-1.93593 -2.96404,-2.3161 -0.28816,-0.0749 -0.59006,-0.13747 -0.89195,-0.18108 -0.31287,-0.0436 -0.62665,-0.0749 -0.93953,-0.0805 -0.14362,-0.007 -0.27718,-0.007 -0.40893,-0.007 -0.0129,0 -0.0129,0.007 -0.0238,0 0,0 0,0 -0.0128,0 -1.67414,-0.0749 -3.20464,0.31286 -4.20546,1.16137 -0.20491,0.16875 -0.39795,0.36879 -0.55987,0.58685 -0.16192,0.21805 -0.29457,0.45506 -0.40984,0.71103 v 0.007 c -0.005,0.0246 -0.0238,0.0559 -0.0421,0.11282 l -0.0183,0.26829 c 0.19852,0.81817 0.85628,1.68564 1.83789,2.32274 0.24151,0.15643 0.494,0.29959 0.78308,0.41809 0.27628,0.13084 0.57817,0.23702 0.87915,0.32519 z m 1.74732,-5.91303 c 0,0 0,0.007 -0.0129,0 h 0.0129 z m 0.0238,0 c -0.0129,0 -0.0129,0 -0.0238,0 h 0.0238 z" id="path241" />
        <path d="m 286.11853,133.94929 c -1.34502,0 -2.42971,1.10065 -2.42971,2.45301 0,1.34586 1.08378,2.44651 2.42971,2.44651 1.33326,0 2.4288,-1.10158 2.4288,-2.44651 0,-1.35236 -1.09554,-2.45301 -2.4288,-2.45301 z" id="path243" style="fill-rule:evenodd" />
        <path d="m 267.9694,138.80325 c 0,0 0,0 0.006,0 -0.006,0 -0.006,0 -0.006,0 z m 0.005,0 c 0.54423,-0.005 1.05167,-0.076 1.51899,-0.20157 0.28089,-0.0703 0.54507,-0.16358 0.78248,-0.26684 0.24161,-0.0983 0.47317,-0.22305 0.68217,-0.35358 0.74904,-0.46263 1.26652,-1.06074 1.46465,-1.6159 -0.0828,-0.16357 -0.18224,-0.32714 -0.29678,-0.46758 -0.12205,-0.15283 -0.26417,-0.29906 -0.4297,-0.43537 -0.85939,-0.69642 -2.21285,-1.00704 -3.73351,-0.936 h -0.0326 c -0.13208,0 -0.27002,0 -0.40712,0.005 -0.29678,0.0108 -0.58938,0.0331 -0.87026,0.0711 -0.28591,0.038 -0.56179,0.0925 -0.81509,0.15779 -1.12357,0.28832 -2.00888,0.8319 -2.36752,1.58368 0.0443,0.0975 0.11035,0.20157 0.19228,0.30979 0.11621,0.16357 0.25916,0.32136 0.41298,0.47337 0.85856,0.81621 2.33407,1.55558 3.89235,1.67537 h 0.006 z m 1.75056,0.6419 c -0.54424,0.14705 -1.14447,0.23379 -1.784,0.23379 h -0.0326 c -1.77814,-0.13631 -3.46851,-0.98473 -4.45999,-1.93147 -0.20899,-0.19579 -0.38539,-0.40233 -0.52835,-0.58738 h 0.006 c -0.14881,-0.20653 -0.27002,-0.41884 -0.34693,-0.63115 v -0.005 l -0.0167,-0.0495 0.005,-0.28832 c 0.41298,-1.11527 1.56915,-1.89926 3.03966,-2.26936 h 0.006 c 0.29175,-0.0761 0.60023,-0.13631 0.91373,-0.17927 0.31349,-0.0438 0.64454,-0.0702 0.9689,-0.0817 0.13795,0 0.2809,-0.006 0.42385,0 0.006,0 0.0117,0 0.0117,0 0.0109,0 0.0109,0 0.0167,0 1.72882,-0.0761 3.29211,0.29905 4.3279,1.13673 0.209,0.16853 0.40128,0.36432 0.57266,0.57664 0.15966,0.21231 0.30262,0.4461 0.41883,0.69642 0.0109,0.0273 0.0267,0.0595 0.0435,0.11401 l 0.0217,0.26105 c -0.209,0.79968 -0.88113,1.65389 -1.88849,2.2801 -0.2416,0.14705 -0.51162,0.28832 -0.80339,0.41306 -0.29343,0.1264 -0.59606,0.22966 -0.9154,0.31145 z m -1.79403,-5.78864 c 0.0109,0 0.0109,0 0.0167,0 h -0.0167 z m -0.0118,0 c 0.006,0 0.0118,0 0.0118,0 h -0.0118 z" id="path247" />
      </g>
      <path d="m 170.6526,299.06836 13.16545,0 c -0.15807,19.49174 4.70828,13.17019 4.3579,31.39983 -0.49534,25.77142 3.52265,24.75836 6.53686,41.74411 -9.37527,1.15695 -18.96223,-0.84011 -27.8103,-4.47258 -0.57341,-17.66097 8.56573,-34.26876 2.63769,-44.61115 -4.91274,-8.57103 2.43643,-5.75433 1.1124,-24.06021 z" id="path3103" style="fill:#f2016c;fill-opacity:1;stroke:none" />
      <path d="m 211.571,368.77185 c 10.35851,-1.91652 44.47485,-23.31145 57.68486,-35.89535 -15.64992,-36.01467 -16.11621,-53.9463 -20.78031,-113.30544 -12.36577,15.62968 -24.05416,14.7815 -33.46409,8.7158 0,0 4.5289,40.55566 7.56898,58.25827 0.77032,4.48562 -10.89475,9.51858 -10.89475,9.51858 0.25406,19.37042 3.13003,10.05183 -0.11469,72.70814 z" id="path3873" style="fill:#f2016c;fill-opacity:1;stroke:none" />
      <path d="m 224.86252,112.40832 9.45972,-9.05915 c -19.00549,-59.829529 31.09651,-84.540128 48.75296,-2.10644 6.0287,28.14656 0.22753,66.34413 -0.31162,113.73817 -0.45757,40.22348 5.81356,89.55581 12.69697,119.19635 l -3.64575,0.10035 c -13.51503,-68.81246 -17.66863,-95.88569 -15.84317,-165.36304 1.33252,-50.71617 -4.38147,-90.881118 -24.22532,-102.853364 -5.50218,-3.319592 -9.96843,16.23234 -12.24698,31.489499 -1.81523,12.154825 2.43526,16.011975 3.5805,22.297535 -4.60737,-4.05253 -9.61837,-6.57298 -18.21731,-7.43991 z" id="path75" style="fill:#ffffff;fill-rule:evenodd;stroke:#000000;stroke-width:1;stroke-opacity:1" />
      <path d="m 281.00001,243.16667 a 10.166667,10.666667 0 1 1 -20.33333,0 10.166667,10.666667 0 1 1 20.33333,0 z" transform="matrix(0.68808975,0,0,0.68808975,-4.7185375,-12.315187)" id="path3104" style="fill:#ffffff;fill-opacity:1;stroke:none" />
      <path d="m 167.07454,114.17865 c 1.62024,1.17238 1.80932,3.64412 0.79497,5.66923 2.60239,1.58287 17.17576,8.57111 29.34336,19.15934 3.92142,-11.04095 9.73597,-20.68133 19.57615,-25.11528 -5.40913,-0.0574 -13.46862,1.15946 -17.48894,-0.2867 -1.61046,4.46342 -30.00407,3.48204 -32.22554,0.57341 z" id="path3106" style="fill:#f2016c;fill-opacity:1;stroke:none" />
      <path d="m 130.94982,135.39474 c 5.2245,-11.87718 12.38837,-21.55979 25.80337,-21.60624 -3.89439,2.18358 -2.37207,7.63373 2.75236,8.53254 0.0805,5.94908 -0.5459,13.16349 -1.94959,17.59193 -1.17322,-1.6096 -7.10547,-3.04301 -9.17453,-0.38968 -0.33941,-2.53819 -7.4654,-3.83643 -9.63326,-1.03214 -1.10478,-2.6319 -4.51767,-3.82288 -7.79835,-3.09641 z" id="path3876" style="fill:#f2016c;fill-opacity:1;stroke:none" />
      <rect width="8.2986689" height="17.386906" rx="3.4993694" ry="3.4994552" x="171.92596" y="109.75742" transform="matrix(0.98273701,0.18500805,-0.17798338,0.98403349,0,0)" id="rect3878" style="fill:#ffffff;fill-opacity:1;stroke:none" />
      <rect width="8.470747" height="16.797346" rx="3.4979379" ry="3.4972794" x="167.88701" y="105.73808" transform="matrix(0.97721998,0.21222891,-0.23068329,0.97302889,0,0)" id="rect3878-1" style="fill:#ffffff;fill-opacity:1;stroke:none" />
      <rect width="7.9161043" height="16.779922" rx="3.4948597" ry="3.4945996" x="160.59074" y="99.40036" transform="matrix(0.96796342,0.25109124,-0.25306135,0.96745023,0,0)" id="rect3878-1-7" style="fill:#ffffff;fill-opacity:1;stroke:none" />
      <path d="m 134.16668,305.16666 a 6.583333,3.3333333 0 1 1 -13.16667,0 6.583333,3.3333333 0 1 1 13.16667,0 z" transform="matrix(0.53428431,-0.42866899,0.06142819,0.60194451,-5.274878,69.0471)" id="path3916" style="fill:#ffffff;fill-opacity:1;stroke:none" />
      <path d="m 135.14926,305.16666 a 7.5659199,3.3333333 0 1 1 -15.13184,0 7.5659199,3.3333333 0 1 1 15.13184,0 z" transform="matrix(0.56516177,-0.50981021,0.11148866,0.63390641,-21.666263,72.43716)" id="path3916-4" style="fill:#ffffff;fill-opacity:1;stroke:none" />
      <path d="m 134.16668,305.16666 a 6.583333,3.3333333 0 1 1 -13.16667,0 6.583333,3.3333333 0 1 1 13.16667,0 z" transform="matrix(0.54835234,-0.46812597,0.08402147,0.6238579,-8.2611851,73.201242)" id="path3916-0" style="fill:#ffffff;fill-opacity:1;stroke:none" />
      <path d="m 134.16668,305.16666 a 6.583333,3.1659634 0 1 1 -13.16667,0 6.583333,3.1659634 0 1 1 13.16667,0 z" transform="matrix(0.5357123,-0.44829924,0.07468038,0.60704075,-0.12812919,77.982668)" id="path3916-9" style="fill:#ffffff;fill-opacity:1;stroke:none" />
      <path d="m 144.02353,103.51325 7.56899,9.01398 c -9.15092,2.3384 -20.29672,6.66944 -28.48692,43.96893 -7.7114,8.24739 -14.21204,14.55936 -21.4684,21.05555 -5.346132,4.29053 -8.282294,7.45063 -14.687274,6.90292 -7.116218,4.84292 -12.723117,9.21811 -11.391326,14.57972 l -5.076465,1.9925 -7.161762,-12.15621 7.34454,-5.36952 C 65.415517,179.56205 62.455705,170.67666 62.312403,163.944 51.887208,153.65676 49.628183,148.26934 47.834666,134.07506 38.561218,126.73543 33.60468,110.73913 33.354883,91.367362 45.949887,100.30879 56.0259,111.83998 58.467471,127.13246 c 8.741456,7.42272 13.64618,12.6966 15.739404,29.45336 6.154708,4.17096 7.907906,9.51864 9.244032,17.9633 l 2.084994,-1.52829 C 59.741217,22.342653 166.14618,5.7561671 144.02353,103.51325 z" id="path3976" style="fill:#ffd500;stroke:#000000;stroke-width:1;stroke-opacity:1" />
      <path d="m 115.02223,134.26908 c -0.90324,10.88757 -0.56112,31.10836 -0.56112,31.10836 3.60291,-3.82721 5.96889,-5.77683 8.53302,-8.72095 0.45893,-1.79399 0.88515,-3.66592 1.46049,-6.25916 -0.17722,-5.48847 -0.12547,-11.11559 -0.53978,-15.08782 l -3.04018,-0.40838 c -0.43972,8.24006 1.16099,17.97008 -1.2533,17.16923 -1.96138,-0.65062 -1.39516,-17.43676 -1.39516,-17.43676 0,0 -2.25305,-0.4189 -3.20397,-0.36452 z" id="path67" style="fill:#ffffff;fill-rule:evenodd;stroke:#000000;stroke-width:1;stroke-linejoin:round;stroke-opacity:1" />
      <path d="m 108.35733,115.97117 c 5.22697,0.63719 6.77321,-9.62858 13.77187,-35.14085 l -1.93482,-4.07164 c -7.62681,18.694277 -8.95785,29.24446 -10.52635,25.5928 -1.32018,-3.073522 6.15345,-20.061061 8.37362,-28.527517 l -1.83718,-3.414108 c -6.65087,7.41813 -20.115467,44.065765 -7.84714,45.561315 z" id="path55" style="fill:#ffffff;fill-rule:evenodd;stroke:#000000;stroke-width:1;stroke-linejoin:round;stroke-opacity:1" />
      <path d="m 120.96131,130.70179 c 5.40753,1.59296 10.54601,-20.53659 10.544,-30.77038 l -3.09172,-8.003902 c -1.56108,14.659072 -3.31454,26.305832 -5.3751,25.490042 -2.71871,-1.07638 2.05308,-13.45173 3.40823,-28.805361 l -1.80499,-4.044454 c -7.60892,34.037585 -13.29256,43.302485 -3.68042,46.134055 z" id="path53" style="fill:#ffffff;fill-rule:evenodd;stroke:#000000;stroke-width:1;stroke-linejoin:round;stroke-opacity:1" />
      <g transform="matrix(0.68808975,0,0,0.68808975,-4.7532012,-12.200666)" id="g3876">
        <path d="m 110.05535,306.6019 -7.85789,-13.29146 35.62751,-25.24783 6.80881,11.68362 c -7.00171,5.55395 -5.76163,3.92007 -12.19552,2.80448 -3.49859,2.54405 -19.8656,11.05153 -18.49575,22.63215 z" id="path193" style="fill:#ffd500;fill-rule:evenodd;stroke:#000000;stroke-width:1.45329881;stroke-opacity:1" />
      </g>
      <path d="m 283.80922,243.16667 a 12.975878,8.9098043 0 1 1 -25.95175,0 12.975878,8.9098043 0 1 1 25.95175,0 z" transform="matrix(0.42864609,0,0,0.45693461,45.56203,6.2182441)" id="path3104-4" style="fill:#ffd500;fill-opacity:1;stroke:none" />
      <path d="m 147.36873,113.63636 -8.60113,-7.64412 C 156.66552,18.544711 69.820709,28.285854 89.120519,170.07938 l 1.002643,-0.68153 6.387771,11.11265 C 93.414467,98.896502 108.30118,67.452879 119.68634,65.570802 c 4.92039,-0.813391 13.73931,28.807538 14.1764,33.664825 1.60585,17.845613 -6.49883,23.157983 -6.19281,40.459713 3.79874,-10.79479 7.27495,-20.00249 19.6988,-26.05898 z" id="path3978" style="fill:#ffffff;stroke:#000000;stroke-width:1;stroke-opacity:1" />
      <path d="m 102.48561,117.52476 c -2.18846,24.47593 -4.329365,34.14721 2.64069,35.06194 6.29565,0.82622 4.89684,-4.2914 6.50239,-32.38839 l -3.01543,-1.05093 c -1.60554,13.87648 -1.54293,20.6267 -3.75665,19.88593 -1.72592,-0.57752 0.60791,-13.52352 0.74095,-20.46857 z" id="path51" style="fill:#ffffff;fill-rule:evenodd;stroke:#000000;stroke-width:1;stroke-linejoin:round;stroke-opacity:1" />
      <path d="m 99.892467,155.21465 c -0.353203,7.03133 -0.764151,14.93085 -0.359286,24.05729 5.348069,-4.55642 7.082439,-6.21008 11.323249,-10.32135 -0.004,-4.98493 0.0442,-7.30724 -0.53842,-12.43404 l -3.43459,-0.32581 c -0.26657,4.65895 0.94098,16.54724 -1.61049,17.16923 -1.9183,0.46764 -1.39517,-5.31235 -1.82405,-17.64572 z" id="path67-1" style="fill:#ffffff;fill-rule:evenodd;stroke:#000000;stroke-width:1;stroke-linejoin:round;stroke-opacity:1" />
      <path d="m 87.944215,211.13049 c 2.26471,-0.10068 4.206424,0.62955 8.876358,-7.91303 3.282027,-1.81085 5.020457,-4.27058 5.779957,-7.84422 6.20977,-3.7917 9.53225,-4.76043 19.06008,-11.9269 -2.57158,51.56224 -4.82814,87.14566 -5.77995,95.27177 1.11962,14.97176 6.124,30.9239 6.124,30.9239 l -14.89428,33.97156 c -1.12255,-1.20591 -2.23563,-2.33618 -3.46912,-4.42958 C 98.101053,349.5697 92.083,360.0021 77.680208,365.31707 l 3.798833,-27.91064 c -2.701475,-0.0975 -4.688334,0.63866 -6.723215,1.31883 C 87.1917,290.94038 89.414753,250.71159 87.944215,211.13049 z" id="path3124" style="fill:#ffd500;stroke:#000000;stroke-width:1;stroke-opacity:1" />
      <path d="m 102.73484,200.3879 c -1.61293,43.59801 -3.87331,42.70964 2.14255,43.20845 7.18946,0.59614 4.4716,-6.37585 7.18422,-49.56365 l -3.36283,2.35574 c -1.6743,20.08942 -0.41608,24.20948 -2.51903,25.14205 -1.82253,0.80821 -0.89509,-5.48203 -0.41387,-23.48918 z" id="path69" style="fill:#ffffff;fill-rule:evenodd;stroke:#000000;stroke-width:1;stroke-opacity:1" />
      <path d="m 103.56535,267.46083 c 1.67803,-0.12508 1.22365,-5.1489 1.9661,-18.28696 l 3.23973,0.14348 c -1.05739,28.27943 -2.03134,41.06184 -7.47099,40.39596 -5.951757,-0.72856 -2.697382,-17.49099 -0.85232,-40.99821 l 2.92856,0.24487 c -1.18805,14.32361 -1.67806,18.64003 0.18892,18.50086 z" id="path59" style="fill:#ffffff;fill-rule:evenodd;stroke:#000000;stroke-width:1;stroke-opacity:1" />
      <path d="m 112.09306,312.82623 c 1.63616,-1.22062 4.40398,-19.59717 4.40398,-19.59717 l 1.6901,8.03665 c -3.73264,19.58119 -8.92466,35.16969 -12.63134,32.17979 -2.38067,-1.9203 1.48777,-14.37518 6.76313,-54.51375 l 2.46299,1.33503 c -0.13461,9.74243 -5.94016,34.985 -2.68886,32.55945 z" id="path63" style="fill:#ffffff;fill-rule:evenodd;stroke:#000000;stroke-width:1;stroke-opacity:1" />
      <path d="m 93.709988,329.51208 c 1.813866,1.04354 5.847483,-18.78372 8.637112,-34.14544 l 2.81934,0.43991 c -2.17876,18.86348 -7.420565,47.38203 -16.67529,57.96634 -5.971717,6.82964 -1.058075,-28.83419 7.852164,-59.21794 l 3.125311,0.39006 c -4.301593,21.95736 -7.905732,33.33183 -5.758637,34.56707 z" id="path61" style="fill:#ffffff;fill-rule:evenodd;stroke:#000000;stroke-width:1;stroke-opacity:1" />
      <path d="m 91.384664,216.87604 c 1.911624,1.43431 4.036452,2.30408 5.504718,1.89225 -3.146221,40.80869 -3.123728,74.33491 -14.621907,115.25503 l -4.128538,0.34405 c 8.954621,-35.41772 12.74638,-71.01182 13.245727,-117.49133 z" id="path3894" style="fill:#ffffff;stroke:#000000;stroke-width:1;stroke-opacity:1" />
      <path d="m 116.55728,253.74618 c -2.3152,-0.37716 -1.49969,-2.83539 -0.92629,-19.0055 l -2.17012,-0.77708 c -1.96161,35.97908 -1.98335,40.92245 1.2615,41.45741 0.48587,0.0801 1.54109,-17.4245 1.83491,-21.67483 z" id="path3109" style="fill:#ffffff;stroke:#000000;stroke-width:1;stroke-opacity:1" />
      <path d="m 118.84197,211.60841 c -2.32715,-0.0149 -1.33576,-8.29657 -0.84478,-21.59667 l -2.48098,1.75675 c -1.45271,32.09533 -2.73299,37.81782 1.60554,38.13164 0.98679,0.0714 0.853,-2.45855 1.72022,-18.29172 z" id="path3109-1" style="fill:#ffffff;stroke:#000000;stroke-width:1;stroke-opacity:1" />
      <path d="m 90.180507,213.26357 c 7.112832,-3.71837 4.760171,-5.33005 7.970378,-8.02771 1.202168,10.12077 1.258014,15.84818 -7.970378,8.02771 z" id="path3897" style="fill:#ffd500;stroke:#000000;stroke-width:1;stroke-opacity:1" />
      <path d="m 264.96834,120.72988 -3.76435,1.39582 c 0.40405,18.58569 0.48264,32.18043 6.29035,31.83121 6.57146,-0.39515 5.18622,-4.04865 3.2576,-34.93018 l -3.11889,0.9083 c 0.18065,7.48707 1.31472,19.14046 -0.86712,18.97763 -1.34934,-0.1007 -1.39744,-10.65853 -1.79759,-18.18278 z" id="path51-1" style="fill:#ffffff;fill-rule:evenodd;stroke:#000000;stroke-width:1;stroke-opacity:1" />
      <path d="m 219.95423,124.08714 c -6.59031,3.61751 -14.36101,18.53131 -15.75312,38.96308 l 17.30133,1.72022 z" id="path3932" style="fill:#ffffff;fill-opacity:1;stroke:#000000;stroke-width:0.68808973;stroke-opacity:1" />
      <path d="m 232.87312,123.73879 -1.82344,41.04886 17.78975,-1.63422 c -1.77,-21.07438 -8.50119,-33.52339 -15.96631,-39.41464 z" id="path3932-0" style="fill:#ffffff;fill-opacity:1;stroke:#000000;stroke-width:0.68808973;stroke-opacity:1" />
      <path d="m 230.96367,173.71561 1.47939,46.66969 c 9.38692,-6.03311 16.16527,-23.06873 16.58419,-45.2075 z" id="rect3934" style="fill:#ffffff;fill-opacity:1;stroke:#000000;stroke-width:0.68808973;stroke-opacity:1" />
      <path d="m 203.71532,175.31542 c 1.08479,22.14386 7.01878,37.70583 15.89487,44.41619 l 1.89225,-46.0504 z" id="path3932-0-8" style="fill:#ffffff;fill-opacity:1;stroke:#000000;stroke-width:0.68808973;stroke-opacity:1" />
      <path d="m 203.972,164.0474 18.2165,1.5482 -1.46219,-41.90722 c 2.97088,-2.43129 7.71246,-2.40147 11.25681,-0.34536 l -1.63421,42.25258 18.73004,-1.46219 c 0.14691,2.88775 0.26289,7.76355 0.0518,10.00731 l -18.78183,-1.20416 1.46219,47.79904 c -3.78564,2.77129 -9.25808,1.23089 -11.46168,-0.51606 l 1.83908,-47.28298 -18.4568,1.5482 c 0.0801,-9.82769 0.1602,-8.71892 0.2403,-10.43736 z" id="path4041" style="fill:#ffd500;stroke:#000000;stroke-width:0.68808973;stroke-opacity:1" />
      <path d="m 174.84995,99.021555 c 5.49895,6.246725 13.01663,6.052515 17.33986,0 0.43199,6.669365 1.21179,10.474265 6.33043,13.987335 -5.18177,2.97622 -26.80469,2.54591 -32.06498,0 5.24836,-0.75849 8.08109,-4.00365 8.39469,-13.987335 z" id="path4141" style="fill:#ffffff;stroke:none" />
      <path d="m 165.03725,79.65273 c 2.36873,-28.567699 34.43098,-27.394613 37.0759,-0.728563 l -4.29044,0.08095 C 198.9509,58.629256 167.59973,58.452162 169.3277,79.49083 z" id="path4143" style="fill:#ffd500;stroke:none" />
      <path d="m 138.83639,273.31263 c 2.41074,3.31966 4.86863,5.43127 9.95083,5.71644 0.40432,-0.84688 0.18754,-1.37618 0.0372,-2.22306 -5.92578,-0.14577 -7.32831,-2.1602 -9.98804,-3.49338 z" id="path4145" style="fill:#ffffff;stroke:none" />
      <path d="m 218.74407,274.99101 c -2.41074,3.31966 -4.62508,4.86992 -9.70728,5.1551 -0.26516,-0.58188 -0.44014,-1.25394 -0.42386,-2.11726 5.92578,-0.14576 7.47141,-1.70466 10.13114,-3.03784 z" id="path4145-1" style="fill:#ffffff;stroke:none" />
      <path d="m 151.11615,276.80601 c 3.62677,2.48815 8.72161,3.68694 13.40695,1.48204 0.0333,1.02331 0.15805,1.51732 -0.10032,2.43478 -3.38995,1.72305 -9.85008,1.23107 -13.41246,-1.48204 -0.15307,-1.1883 -0.0148,-1.79387 0.10583,-2.43478 z" id="path4165" style="fill:#ffffff;stroke:none" />
      <path d="m 166.60689,278.75878 c 3.58597,3.34981 14.54534,2.42695 20.03957,0.21172 0.21313,0.81159 0.37865,1.62318 0.0365,2.43478 -5.01182,3.63643 -16.20223,3.84082 -20.07607,-0.63515 -0.3977,-1.40817 -0.13931,-1.40875 3e-5,-2.01135 z" id="path4165-7" style="fill:#ffffff;stroke:none" />
      <path d="m 189.1285,279.18222 c 5.21467,2.17058 13.47478,1.67561 17.31324,-0.84687 0.37453,0.63829 0.83479,1.08497 0.39194,2.54063 -4.13097,2.67579 -11.68146,3.77172 -17.46689,0.74103 -0.36451,-0.66906 -0.43836,-1.48344 -0.23829,-2.43479 z" id="path4165-1" style="fill:#ffffff;stroke:none" />
      <path d="m 177.57686,79.069237 c -0.92549,0 -1.67185,0.757346 -1.67185,1.687891 0,0.926073 0.74573,1.683419 1.67185,1.683419 0.91741,0 1.67124,-0.757986 1.67124,-1.683419 0,-0.930545 -0.75383,-1.687891 -1.67124,-1.687891 z" id="path243-1" style="fill-rule:evenodd" />
      <path d="m 271.13117,268.13483 c -1.67803,-0.12509 -1.22365,-5.1489 -1.9661,-18.28697 l -3.23972,0.14348 c 1.05738,28.27943 1.80196,40.02971 7.24162,39.36383 5.95175,-0.72856 2.92675,-16.45886 1.08168,-39.96608 l -2.92856,0.24487 c 1.18805,14.32361 1.67806,18.64003 -0.18892,18.50087 z" id="path59-1" style="fill:#ffffff;fill-rule:evenodd;stroke:#000000;stroke-width:1;stroke-opacity:1" />
      <path d="m 280.12247,328.26986 c -1.81386,1.04354 -5.84748,-18.78372 -8.63711,-34.14544 l -2.81934,0.43991 c 2.17876,18.86348 7.42057,47.38203 16.67529,57.96634 5.97172,6.82964 1.05808,-28.83419 -7.85216,-59.21793 l -3.12531,0.39006 c 4.30159,21.95735 7.90573,33.33182 5.75863,34.56706 z" id="path61-6" style="fill:#ffffff;fill-rule:evenodd;stroke:#000000;stroke-width:1;stroke-opacity:1" />
      <path d="m 258.0476,134.68827 c 0.90324,10.88758 0.56112,31.10836 0.56112,31.10836 -0.23216,-3.71718 -1.86297,-18.03221 -3.68925,-24.93452 0.001,-2.92009 -0.0758,-5.80932 -0.0758,-5.80932 0,0 2.25305,-0.4189 3.20397,-0.36452 z" id="path67-8" style="fill:#ffffff;fill-rule:evenodd;stroke:#000000;stroke-width:1;stroke-linejoin:round;stroke-opacity:1" />
      <path d="m 47.421243,107.79796 c 11.457058,10.08919 8.405001,34.41649 12.358667,23.39883 18.175183,14.5664 8.721419,38.69662 15.196,28.47827 4.006385,3.6 6.441829,10.25523 6.673,16.40806 l -8.715,6.184 c -6.456207,-4.46691 -8.638044,-16.92781 -9.428,-25.94867 -0.261932,8.13022 -13.29611,-3.7018 -13.935109,-27.15565 -5.306296,1.56494 -10.007305,-10.16257 -10.695891,-14.31355 8.728264,6.54148 -4.630795,-6.7264 -3.487,-19.718129 0,0 8.496918,9.552649 12.033333,12.666839 z" id="path2971-8-2" style="fill:#ffd500;fill-rule:evenodd;stroke:#000000;stroke-opacity:1" />
    </g>
  </g>
</svg>
